<?xml version="1.0" standalone="no"?><!DOCTYPE svg PUBLIC "-//W3C//DTD SVG 1.1//EN" "http://www.w3.org/Graphics/SVG/1.1/DTD/svg11.dtd"><svg class="icon" height="512" viewBox="0 0 1024 1024" version="1.1" xmlns="http://www.w3.org/2000/svg"><path d="M547.824 741.664 84.176 741.664c-13.6 0-24.608-11.008-24.608-24.608l0-9.392c0-13.6 11.008-24.608 24.608-24.608l463.664 0c13.6 0 24.608 11.008 24.608 24.608l0 9.392C572.432 730.64 561.424 741.664 547.824 741.664M557.904 594.384l-26.128 0-138.48 0-8.048 0-138.496 0-8.048 0L100.224 594.384 74.08 594.384c-8 0-14.528 6.528-14.528 14.528l0 0.224c0 8 6.544 14.544 14.528 14.544l18.336 0c0 0 15.92 11.84 43.248 20.048 10 4.864 48.16 7.664 52.096 7.664 27.088 0 47.808-5.952 62.4-12.32 14.672 6.352 35.264 12.32 62.24 12.32 0.928 0 1.84-0.032 2.736-0.08 0.304 0 0.56 0.08 0.848 0.08 0.304 0 0.56-0.08 0.864-0.08 0.896 0.048 1.792 0.08 2.736 0.08 26.992 0 47.584-5.952 62.24-12.32 14.592 6.352 35.296 12.32 62.4 12.32 3.952 0 42.112-2.8 52.112-7.664 27.312-8.208 43.248-20.048 43.248-20.048l18.32 0c8 0 14.528-6.544 14.528-14.544l0-0.224C572.432 600.928 565.904 594.384 557.904 594.384M73.584 815.184c0 23.472 19.024 42.496 42.496 42.496l409.584 0c23.472 0 42.512-19.024 42.512-42.496l0-43.056L73.584 772.128 73.584 815.184zM551.856 490.496c0 0-39.84-105.008-235.856-105.008-196.016 0-235.872 105.008-235.872 105.008s-36.64 73.232 0 73.232l471.712 0C588.496 563.712 551.856 490.496 551.856 490.496M180.448 515.248c-10.112 0-18.32-8.192-18.32-18.32s8.208-18.32 18.32-18.32c10.112 0 18.32 8.208 18.32 18.32S190.576 515.248 180.448 515.248M246.4 456.64c-10.128 0-18.32-8.208-18.32-18.32 0-10.112 8.192-18.32 18.32-18.32 10.112 0 18.32 8.208 18.32 18.32C264.72 448.432 256.512 456.64 246.4 456.64M316 515.248c-10.128 0-18.32-8.192-18.32-18.32s8.192-18.32 18.32-18.32c10.112 0 18.32 8.208 18.32 18.32S326.128 515.248 316 515.248M385.616 456.64c-10.112 0-18.336-8.208-18.336-18.32 0-10.112 8.208-18.32 18.336-18.32 10.128 0 18.32 8.208 18.32 18.32C403.92 448.432 395.728 456.64 385.616 456.64M451.552 515.248c-10.128 0-18.32-8.192-18.32-18.32s8.192-18.32 18.32-18.32 18.304 8.208 18.304 18.32S461.68 515.248 451.552 515.248M895.936 861.344 656.448 861.344 616.16 419.92 936.24 419.92ZM963.04 364.672c0-10.064-11.904-18.32-21.984-18.32l-146.528 0 0-85.392-105.44-98.304-24.976 26.784 93.76 87.44 0 69.472-146.544 0c-10.064 0-21.968 8.24-21.968 18.32l-1.408 28.176 376.48 0L963.04 364.672z" /></svg>